<?xml version="1.0" standalone="no"?>
<!DOCTYPE svg PUBLIC "-//W3C//DTD SVG 20010904//EN"
 "http://www.w3.org/TR/2001/REC-SVG-20010904/DTD/svg10.dtd">
<svg version="1.0" xmlns="http://www.w3.org/2000/svg"
 width="128.000000pt" height="128.000000pt" viewBox="0 0 128.000000 128.000000"
 preserveAspectRatio="xMidYMid meet">
<metadata>
Created by potrace 1.14, written by Peter Selinger 2001-2017
</metadata>
<g transform="translate(0.000000,128.000000) scale(0.100000,-0.100000)"
fill="#000000" stroke="none">
<path d="M505 1189 c-185 -47 -330 -175 -397 -352 -26 -67 -32 -105 -31 -197
1 -93 2 -104 18 -161 40 -141 151 -276 280 -338 114 -56 137 -62 247 -66 160
-7 308 53 426 172 39 41 72 79 72 84 0 6 8 23 19 37 17 25 42 91 58 153 8 31
8 195 0 234 -31 158 -158 321 -303 390 -39 19 -84 36 -98 39 -14 3 -36 8 -48
12 -44 14 -176 10 -243 -7z"/>
</g>
</svg>
